<mxfile host="app.diagrams.net" modified="2023-02-09T02:44:30.342Z" agent="5.0 (X11)" etag="yArd4fsMhAN5u8orDhiy" version="20.8.18" type="github">
  <diagram name="Page-1" id="cgbSsiNqiKlL88TFD_5f">
    <mxGraphModel dx="717" dy="647" grid="1" gridSize="10" guides="1" tooltips="1" connect="1" arrows="1" fold="1" page="1" pageScale="1" pageWidth="850" pageHeight="1100" math="0" shadow="0">
      <root>
        <mxCell id="0" />
        <mxCell id="1" parent="0" />
        <mxCell id="k-UwQ-oz9UKSgA2dhJd0-2" value="" style="rounded=0;whiteSpace=wrap;html=1;fontFamily=Helvetica;fontSize=19;" vertex="1" parent="1">
          <mxGeometry x="170" y="50" width="430" height="470" as="geometry" />
        </mxCell>
        <mxCell id="k-UwQ-oz9UKSgA2dhJd0-3" value="Usecase - Manage Profile" style="text;html=1;strokeColor=none;fillColor=none;align=center;verticalAlign=middle;whiteSpace=wrap;rounded=0;fontSize=19;fontFamily=Helvetica;" vertex="1" parent="1">
          <mxGeometry x="260" y="60" width="270" height="30" as="geometry" />
        </mxCell>
        <mxCell id="k-UwQ-oz9UKSgA2dhJd0-16" style="edgeStyle=none;rounded=0;orthogonalLoop=1;jettySize=auto;html=1;fontFamily=Helvetica;fontSize=12;" edge="1" parent="1" source="k-UwQ-oz9UKSgA2dhJd0-5" target="k-UwQ-oz9UKSgA2dhJd0-9">
          <mxGeometry relative="1" as="geometry" />
        </mxCell>
        <mxCell id="k-UwQ-oz9UKSgA2dhJd0-5" value="&lt;div&gt;User&lt;/div&gt;&lt;div&gt;&lt;br&gt;&lt;/div&gt;" style="shape=umlActor;verticalLabelPosition=bottom;verticalAlign=top;html=1;outlineConnect=0;fontFamily=Helvetica;fontSize=19;" vertex="1" parent="1">
          <mxGeometry x="70" y="90" width="30" height="60" as="geometry" />
        </mxCell>
        <mxCell id="k-UwQ-oz9UKSgA2dhJd0-17" style="edgeStyle=none;rounded=0;orthogonalLoop=1;jettySize=auto;html=1;fontFamily=Helvetica;fontSize=12;" edge="1" parent="1" source="k-UwQ-oz9UKSgA2dhJd0-6" target="k-UwQ-oz9UKSgA2dhJd0-9">
          <mxGeometry relative="1" as="geometry" />
        </mxCell>
        <mxCell id="k-UwQ-oz9UKSgA2dhJd0-6" value="&lt;div&gt;Admin&lt;/div&gt;" style="shape=umlActor;verticalLabelPosition=bottom;verticalAlign=top;html=1;outlineConnect=0;fontFamily=Helvetica;fontSize=19;" vertex="1" parent="1">
          <mxGeometry x="70" y="320" width="30" height="60" as="geometry" />
        </mxCell>
        <mxCell id="k-UwQ-oz9UKSgA2dhJd0-9" value="Managge User Profile" style="ellipse;whiteSpace=wrap;html=1;fontFamily=Helvetica;fontSize=19;" vertex="1" parent="1">
          <mxGeometry x="210" y="240" width="120" height="80" as="geometry" />
        </mxCell>
        <mxCell id="k-UwQ-oz9UKSgA2dhJd0-13" value="extends" style="edgeStyle=none;rounded=0;orthogonalLoop=1;jettySize=auto;html=1;fontFamily=Helvetica;fontSize=12;dashed=1;dashPattern=8 8;" edge="1" parent="1" source="k-UwQ-oz9UKSgA2dhJd0-10" target="k-UwQ-oz9UKSgA2dhJd0-9">
          <mxGeometry relative="1" as="geometry" />
        </mxCell>
        <mxCell id="k-UwQ-oz9UKSgA2dhJd0-10" value="&lt;font style=&quot;font-size: 18px;&quot;&gt;Change User information&lt;/font&gt;" style="ellipse;whiteSpace=wrap;html=1;fontFamily=Helvetica;fontSize=19;" vertex="1" parent="1">
          <mxGeometry x="400" y="120" width="120" height="80" as="geometry" />
        </mxCell>
        <mxCell id="k-UwQ-oz9UKSgA2dhJd0-14" value="extends" style="edgeStyle=none;rounded=0;orthogonalLoop=1;jettySize=auto;html=1;dashed=1;dashPattern=8 8;fontFamily=Helvetica;fontSize=12;" edge="1" parent="1" source="k-UwQ-oz9UKSgA2dhJd0-11" target="k-UwQ-oz9UKSgA2dhJd0-9">
          <mxGeometry relative="1" as="geometry" />
        </mxCell>
        <mxCell id="k-UwQ-oz9UKSgA2dhJd0-11" value="Upload User Avatar" style="ellipse;whiteSpace=wrap;html=1;fontFamily=Helvetica;fontSize=18;" vertex="1" parent="1">
          <mxGeometry x="450" y="245" width="120" height="80" as="geometry" />
        </mxCell>
        <mxCell id="k-UwQ-oz9UKSgA2dhJd0-15" value="extends" style="edgeStyle=none;rounded=0;orthogonalLoop=1;jettySize=auto;html=1;dashed=1;dashPattern=8 8;fontFamily=Helvetica;fontSize=12;" edge="1" parent="1" source="k-UwQ-oz9UKSgA2dhJd0-12" target="k-UwQ-oz9UKSgA2dhJd0-9">
          <mxGeometry relative="1" as="geometry" />
        </mxCell>
        <mxCell id="k-UwQ-oz9UKSgA2dhJd0-12" value="Change User password" style="ellipse;whiteSpace=wrap;html=1;fontFamily=Helvetica;fontSize=18;" vertex="1" parent="1">
          <mxGeometry x="420" y="390" width="120" height="80" as="geometry" />
        </mxCell>
      </root>
    </mxGraphModel>
  </diagram>
</mxfile>
